<svg xmlns="http://www.w3.org/2000/svg" xmlns:xlink="http://www.w3.org/1999/xlink" width="512" height="512" viewBox="0 0 512 512">
  <defs>
    <clipPath id="clip-React_Screentype_Hook">
      <rect width="512" height="512"/>
    </clipPath>
  </defs>
  <g id="React_Screentype_Hook" data-name="React Screentype Hook" clip-path="url(#clip-React_Screentype_Hook)">
    <g id="React_Screentype_Hook-2" data-name="React Screentype Hook" transform="translate(0 -30)">
      <g id="Logo" transform="translate(99 86)">
        <g id="Screens">
          <path id="Rectangle_33" data-name="Rectangle 33" d="M8,0H294a0,0,0,0,1,0,0V264a0,0,0,0,1,0,0H0a0,0,0,0,1,0,0V8A8,8,0,0,1,8,0Z" transform="translate(10 40)" fill="#aadddf"/>
          <path id="Rectangle_34" data-name="Rectangle 34" d="M8,0H223a0,0,0,0,1,0,0V234a0,0,0,0,1,0,0H0a0,0,0,0,1,0,0V8A8,8,0,0,1,8,0Z" transform="translate(81 70)" fill="#6fc8ca"/>
          <path id="Rectangle_32" data-name="Rectangle 32" d="M8,0H152a0,0,0,0,1,0,0V204a0,0,0,0,1,0,0H0a0,0,0,0,1,0,0V8A8,8,0,0,1,8,0Z" transform="translate(152 100)" fill="#1cb1b4"/>
        </g>
        <ellipse id="Detail" cx="8" cy="7.5" rx="8" ry="7.5" transform="translate(25 55)" fill="#fff"/>
        <g id="React" transform="translate(175.001 145)">
          <g id="Ellipse_2" data-name="Ellipse 2" transform="translate(106.331 34.909) rotate(90)" fill="none" stroke="#fff" stroke-width="5">
            <ellipse cx="22.386" cy="53.166" rx="22.386" ry="53.166" stroke="none"/>
            <ellipse cx="22.386" cy="53.166" rx="19.886" ry="50.666" fill="none"/>
          </g>
          <g id="Ellipse_3" data-name="Ellipse 3" transform="translate(60.499 0) rotate(30)" fill="none" stroke="#fff" stroke-width="5">
            <ellipse cx="22.292" cy="53.203" rx="22.292" ry="53.203" stroke="none"/>
            <ellipse cx="22.292" cy="53.203" rx="19.792" ry="50.703" fill="none"/>
          </g>
          <g id="Ellipse_4" data-name="Ellipse 4" transform="translate(99.109 92.15) rotate(150)" fill="none" stroke="#fff" stroke-width="5">
            <ellipse cx="22.292" cy="53.203" rx="22.292" ry="53.203" stroke="none"/>
            <ellipse cx="22.292" cy="53.203" rx="19.792" ry="50.703" fill="none"/>
          </g>
        </g>
      </g>
      <g id="Text" transform="translate(2)">
        <g id="O" transform="translate(380 420)" fill="none" stroke="#1cb1b4" stroke-width="3.5">
          <circle cx="10.5" cy="10.5" r="10.5" stroke="none"/>
          <circle cx="10.5" cy="10.5" r="8.75" fill="none"/>
        </g>
        <g id="O-2" data-name="O" transform="translate(391 420)" fill="none" stroke="#1cb1b4" stroke-width="3.5">
          <circle cx="10.5" cy="10.5" r="10.5" stroke="none"/>
          <circle cx="10.5" cy="10.5" r="8.75" fill="none"/>
        </g>
        <path id="Text-2" data-name="Text" d="M2.072,0V-19.88h8.792a5.642,5.642,0,0,1,2.534.574,6.555,6.555,0,0,1,2,1.512,7.135,7.135,0,0,1,1.316,2.128,6.4,6.4,0,0,1,.476,2.394,6.611,6.611,0,0,1-.966,3.514,5.545,5.545,0,0,1-2.618,2.282L18.144,0H13.8L9.744-6.664H5.936V0ZM5.936-10.052H10.78a2.043,2.043,0,0,0,.994-.252,2.542,2.542,0,0,0,.8-.686,3.42,3.42,0,0,0,.532-1.022,3.96,3.96,0,0,0,.2-1.26,3.59,3.59,0,0,0-.224-1.288,3.361,3.361,0,0,0-.6-1.022,2.723,2.723,0,0,0-.868-.672,2.254,2.254,0,0,0-.994-.238H5.936ZM34.5-3.388V0h-13.8V-19.88H34.244v3.388H24.556V-11.7h8.372v3.136H24.556v5.18Zm8.68-16.492h3.416L54.152,0H50.176L48.328-4.956H41.384L39.564,0H35.588ZM47.628-7.672l-2.744-7.812L42.028-7.672ZM54.4-10.08a10.3,10.3,0,0,1,.658-3.6,9.782,9.782,0,0,1,1.918-3.178,9.712,9.712,0,0,1,3.08-2.268,9.513,9.513,0,0,1,4.144-.868,9.035,9.035,0,0,1,4.746,1.2,7.69,7.69,0,0,1,2.982,3.136l-2.968,2.044a5.075,5.075,0,0,0-.952-1.414,4.762,4.762,0,0,0-1.2-.91,5.4,5.4,0,0,0-1.344-.49,6.374,6.374,0,0,0-1.372-.154,5.212,5.212,0,0,0-2.534.588,5.575,5.575,0,0,0-1.792,1.526,6.729,6.729,0,0,0-1.078,2.128,8.055,8.055,0,0,0-.364,2.366,7.718,7.718,0,0,0,.42,2.534,6.744,6.744,0,0,0,1.19,2.142,5.952,5.952,0,0,0,1.848,1.484,5.055,5.055,0,0,0,2.366.56,6.224,6.224,0,0,0,1.4-.168,5.322,5.322,0,0,0,1.386-.532,5.252,5.252,0,0,0,1.218-.938,4.329,4.329,0,0,0,.9-1.386l3.164,1.82a5.976,5.976,0,0,1-1.358,1.974,8.738,8.738,0,0,1-1.988,1.442,10.154,10.154,0,0,1-2.366.9,10.356,10.356,0,0,1-2.464.308,8.469,8.469,0,0,1-3.892-.9,10.135,10.135,0,0,1-3.038-2.338,10.849,10.849,0,0,1-1.988-3.276A10.224,10.224,0,0,1,54.4-10.08Zm35.084-6.412H83.132V0H79.3V-16.492H72.94V-19.88H89.488Zm20.244,1.82a4.776,4.776,0,0,0-.714-.532,8.677,8.677,0,0,0-1.26-.658,10.853,10.853,0,0,0-1.61-.546,7.032,7.032,0,0,0-1.764-.224,3.956,3.956,0,0,0-2.38.588,1.945,1.945,0,0,0-.784,1.652,1.7,1.7,0,0,0,.294,1.022,2.541,2.541,0,0,0,.854.714,7.184,7.184,0,0,0,1.414.56q.854.252,1.974.532,1.456.392,2.646.84a7.17,7.17,0,0,1,2.016,1.12,4.625,4.625,0,0,1,1.274,1.61,5.337,5.337,0,0,1,.448,2.31,5.753,5.753,0,0,1-.6,2.73,5.058,5.058,0,0,1-1.624,1.834A7.059,7.059,0,0,1,107.562-.1a11.8,11.8,0,0,1-2.786.322,14.965,14.965,0,0,1-4.424-.672,13.659,13.659,0,0,1-3.92-1.9L98.14-5.684a5.4,5.4,0,0,0,.91.658,13.909,13.909,0,0,0,1.554.812,12.09,12.09,0,0,0,1.988.686,8.983,8.983,0,0,0,2.24.28q3.192,0,3.192-2.044a1.676,1.676,0,0,0-.364-1.092,3.087,3.087,0,0,0-1.036-.784A9.917,9.917,0,0,0,105-7.784q-.952-.28-2.128-.616a18.091,18.091,0,0,1-2.478-.854,6.514,6.514,0,0,1-1.75-1.092,4.092,4.092,0,0,1-1.05-1.456,5.044,5.044,0,0,1-.35-1.974,6.18,6.18,0,0,1,.56-2.688,5.433,5.433,0,0,1,1.554-1.96,7.04,7.04,0,0,1,2.31-1.19,9.545,9.545,0,0,1,2.828-.406,10.975,10.975,0,0,1,3.864.658,14.39,14.39,0,0,1,3.08,1.554Zm4.116,4.592a10.3,10.3,0,0,1,.658-3.6,9.782,9.782,0,0,1,1.918-3.178,9.712,9.712,0,0,1,3.08-2.268,9.513,9.513,0,0,1,4.144-.868,9.035,9.035,0,0,1,4.746,1.2,7.69,7.69,0,0,1,2.982,3.136l-2.968,2.044a5.075,5.075,0,0,0-.952-1.414,4.762,4.762,0,0,0-1.2-.91,5.4,5.4,0,0,0-1.344-.49,6.374,6.374,0,0,0-1.372-.154,5.212,5.212,0,0,0-2.534.588,5.575,5.575,0,0,0-1.792,1.526,6.729,6.729,0,0,0-1.078,2.128,8.055,8.055,0,0,0-.364,2.366,7.719,7.719,0,0,0,.42,2.534,6.744,6.744,0,0,0,1.19,2.142,5.952,5.952,0,0,0,1.848,1.484,5.055,5.055,0,0,0,2.366.56,6.224,6.224,0,0,0,1.4-.168,5.322,5.322,0,0,0,1.386-.532,5.251,5.251,0,0,0,1.218-.938,4.329,4.329,0,0,0,.9-1.386l3.164,1.82A5.976,5.976,0,0,1,130.3-2.478a8.738,8.738,0,0,1-1.988,1.442,10.154,10.154,0,0,1-2.366.9,10.356,10.356,0,0,1-2.464.308,8.469,8.469,0,0,1-3.892-.9,10.135,10.135,0,0,1-3.038-2.338,10.849,10.849,0,0,1-1.988-3.276A10.224,10.224,0,0,1,113.848-10.08ZM134.26,0V-19.88h8.792a5.642,5.642,0,0,1,2.534.574,6.555,6.555,0,0,1,2,1.512,7.135,7.135,0,0,1,1.316,2.128,6.4,6.4,0,0,1,.476,2.394,6.611,6.611,0,0,1-.966,3.514A5.545,5.545,0,0,1,145.8-7.476L150.332,0h-4.34l-4.06-6.664h-3.808V0Zm3.864-10.052h4.844a2.043,2.043,0,0,0,.994-.252,2.542,2.542,0,0,0,.8-.686,3.42,3.42,0,0,0,.532-1.022,3.96,3.96,0,0,0,.2-1.26,3.59,3.59,0,0,0-.224-1.288,3.361,3.361,0,0,0-.6-1.022,2.723,2.723,0,0,0-.868-.672,2.254,2.254,0,0,0-.994-.238h-4.676Zm28.56,6.664V0h-13.8V-19.88h13.552v3.388h-9.688V-11.7h8.372v3.136h-8.372v5.18Zm16.828,0V0h-13.8V-19.88H183.26v3.388h-9.688V-11.7h8.372v3.136h-8.372v5.18ZM190.4-12.74V0h-3.864V-19.88h3l10.36,13.048v-13.02h3.864V0H200.62Zm32.368-3.752h-6.356V0h-3.836V-16.492H206.22V-19.88h16.548Zm4.7-3.388,4.9,9.576,4.984-9.576h4.172L234.3-6.944V0h-3.836V-7l-7.2-12.88ZM243.712,0V-19.88h8.428a5.642,5.642,0,0,1,2.534.574,6.555,6.555,0,0,1,2,1.512,7.135,7.135,0,0,1,1.316,2.128,6.4,6.4,0,0,1,.476,2.394,6.9,6.9,0,0,1-.448,2.45,6.8,6.8,0,0,1-1.26,2.114,6.191,6.191,0,0,1-1.96,1.484,5.67,5.67,0,0,1-2.52.56h-4.7V0Zm3.864-10.052h4.48a2.213,2.213,0,0,0,1.778-.868,3.592,3.592,0,0,0,.714-2.352,3.873,3.873,0,0,0-.224-1.358,3.3,3.3,0,0,0-.588-1.022,2.34,2.34,0,0,0-.854-.63,2.5,2.5,0,0,0-.994-.21h-4.312ZM274.96-3.388V0h-13.8V-19.88h13.552v3.388H265.02V-11.7h8.372v3.136H265.02v5.18ZM301.42-19.88V0h-3.836V-8.484h-9.016V0H284.7V-19.88h3.864v8.036h9.016V-19.88ZM339.164,0V-19.852h3.864v9.436l8.344-9.464h4.256l-7.616,8.82L356.1,0h-4.34l-6.188-8.6-2.548,2.66V0Z" transform="translate(76 440)" fill="#1cb1b4"/>
      </g>
    </g>
  </g>
</svg>
