<?xml version="1.0" encoding="UTF-8"?>
<svg width="355px" height="315px" viewBox="0 0 355 315" version="1.1" xmlns="http://www.w3.org/2000/svg" xmlns:xlink="http://www.w3.org/1999/xlink">
    <!-- Generator: Sketch 51.3 (57544) - http://www.bohemiancoding.com/sketch -->
    <title>react-screentype-hook</title>
    <desc>Created with Sketch.</desc>
    <defs></defs>
    <g id="Page-1" stroke="none" stroke-width="1" fill="none" fill-rule="evenodd">
        <g id="react-screentype-hook">
            <g id="React_Screentype_Hook">
                <g id="React_Screentype_Hook-2">
                    <g id="Logo" transform="translate(29.000000, 0.000000)">
                        <g id="Screens" fill-rule="nonzero">
                            <path d="M8,0 L294,0 L294,264 L0,264 L0,8 C-5.41083001e-16,3.581722 3.581722,8.11624501e-16 8,0 Z" id="Rectangle_33" fill="#AADDDF"></path>
                            <path d="M79,30 L294,30 L294,264 L71,264 L71,38 C71,33.581722 74.581722,30 79,30 Z" id="Rectangle_34" fill="#6FC8CA"></path>
                            <path d="M150,60 L294,60 L294,264 L142,264 L142,68 C142,63.581722 145.581722,60 150,60 Z" id="Rectangle_32" fill="#1CB1B4"></path>
                        </g>
                        <ellipse id="Detail" fill="#FFFFFF" fill-rule="nonzero" cx="23" cy="22.5" rx="8" ry="7.5"></ellipse>
                        <g id="React" transform="translate(164.001000, 104.000000)">
                            <g id="Ellipse_2" transform="translate(53.831000, 58.409000) rotate(90.000000) translate(-53.831000, -58.409000) translate(31.331000, 4.909000)">
                                <ellipse id="Oval" cx="22.386" cy="53.166" rx="22.386" ry="53.166"></ellipse>
                                <ellipse id="Oval" stroke="#FFFFFF" stroke-width="5" cx="22.386" cy="53.166" rx="19.886" ry="50.666"></ellipse>
                            </g>
                            <g id="Ellipse_3" transform="translate(54.234572, 58.582359) rotate(30.000000) translate(-54.234572, -58.582359) translate(31.734572, 5.082359)">
                                <ellipse id="Oval" cx="22.292" cy="53.203" rx="22.292" ry="53.203"></ellipse>
                                <ellipse id="Oval" stroke="#FFFFFF" stroke-width="5" cx="22.292" cy="53.203" rx="19.792" ry="50.703"></ellipse>
                            </g>
                            <g id="Ellipse_4" transform="translate(53.873428, 58.067641) rotate(150.000000) translate(-53.873428, -58.067641) translate(31.373428, 4.567641)">
                                <ellipse id="Oval" cx="22.292" cy="53.203" rx="22.292" ry="53.203"></ellipse>
                                <ellipse id="Oval" stroke="#FFFFFF" stroke-width="5" cx="22.292" cy="53.203" rx="19.792" ry="50.703"></ellipse>
                            </g>
                        </g>
                    </g>
                    <g id="Text" transform="translate(0.000000, 293.000000)">
                        <g id="O" transform="translate(302.000000, 1.000000)">
                            <circle id="Oval" cx="10.5" cy="10.5" r="10.5"></circle>
                            <circle id="Oval" stroke="#1CB1B4" stroke-width="3.5" cx="10.5" cy="10.5" r="8.75"></circle>
                        </g>
                        <g id="O-2" transform="translate(313.000000, 1.000000)">
                            <circle id="Oval" cx="10.5" cy="10.5" r="10.5"></circle>
                            <circle id="Oval" stroke="#1CB1B4" stroke-width="3.5" cx="10.5" cy="10.5" r="8.75"></circle>
                        </g>
                        <path d="M0.072,21 L0.072,1.12 L8.864,1.12 C9.74181957,1.11159053 10.6094912,1.30813494 11.398,1.694 C12.155742,2.06462127 12.8348283,2.57801056 13.398,3.206 C13.958585,3.83228163 14.4041003,4.55268929 14.714,5.334 C15.0247791,6.09407378 15.1863843,6.90685281 15.19,7.728 C15.2035888,8.96670428 14.8688696,10.1843062 14.224,11.242 C13.6182042,12.2633783 12.7005098,13.0632936 11.606,13.524 L16.144,21 L11.8,21 L7.744,14.336 L3.936,14.336 L3.936,21 L0.072,21 Z M3.936,10.9480297 L8.78,10.948 C9.12736906,10.9498716 9.46947885,10.8631396 9.774,10.696 C10.085659,10.5257274 10.3581812,10.2920396 10.574,10.01 C10.8078543,9.70187095 10.9877399,9.35630139 11.106,8.988 C11.2403279,8.58156985 11.3078709,8.15604899 11.306,7.728 C11.3107945,7.28857545 11.2348692,6.85200478 11.082,6.44 C10.9441135,6.06648355 10.7409559,5.72043853 10.482,5.418 C10.2412857,5.13739816 9.94595221,4.90875287 9.614,4.746 C9.30526241,4.59159922 8.96518659,4.51017262 8.62,4.508 L3.936,4.508 L3.936,10.9480297 Z M32.5,17.612 L32.5,21 L18.7,21 L18.7,1.12 L32.244,1.12 L32.244,4.508 L22.556,4.508 L22.556,9.3 L30.928,9.3 L30.928,12.436 L22.556,12.436 L22.556,17.616 L32.5,17.612 Z M41.18,1.12 L44.596,1.12 L52.152,21 L48.176,21 L46.328,16.044 L39.384,16.044 L37.564,21 L33.588,21 L41.18,1.12 Z M45.628,13.328 L42.884,5.516 L40.028,13.328 L45.628,13.328 Z M52.4,10.92 C52.4026829,9.69034305 52.6255331,8.47110198 53.058,7.32 C53.4886415,6.14796169 54.1396942,5.06921006 54.976,4.142 C55.8421738,3.18930585 56.8891415,2.41835689 58.056,1.874 C59.354591,1.2770439 60.7710011,0.980363401 62.2,1.006 C63.8622856,0.961631453 65.5045725,1.37687467 66.946,2.206 C68.219695,2.94433566 69.2546807,4.03277139 69.928,5.342 L66.96,7.386 C66.7246592,6.86436304 66.4027865,6.38628742 66.008,5.972 C65.6588017,5.6069349 65.2537372,5.299761 64.808,5.062 C64.3837129,4.83978605 63.9317479,4.67500718 63.464,4.572 C63.0135914,4.47114252 62.5535602,4.41950637 62.092,4.418 C61.2112118,4.39667351 60.3393916,4.59897433 59.558,5.006 C58.8588731,5.38133919 58.2479258,5.90159898 57.766,6.532 C57.2827995,7.17147129 56.9177308,7.89212632 56.688,8.66 C56.4494993,9.42613456 56.3268115,10.2236056 56.324,11.026 C56.3214769,11.8881969 56.4634425,12.7447225 56.744,13.56 C57.0065382,14.3406764 57.409861,15.0666573 57.934,15.702 C58.4442867,16.315551 59.0727444,16.8202216 59.782,17.186 C60.5133608,17.562379 61.3255186,17.7546057 62.148,17.746 C62.6195239,17.743213 63.0892038,17.6868514 63.548,17.578 C64.0325864,17.4662925 64.4991245,17.2872173 64.934,17.046 C65.3838107,16.7947681 65.7942061,16.4787164 66.152,16.108 C66.5382178,15.7080793 66.8437845,15.2375066 67.052,14.722 L70.216,16.542 C69.9012362,17.284929 69.4392862,17.9564233 68.858,18.516 C68.266523,19.0878591 67.5972474,19.5733195 66.87,19.958 C66.1219623,20.3555178 65.3271206,20.6578667 64.504,20.858 C63.6979928,21.0591217 62.8707138,21.1625315 62.04,21.166 C60.6894615,21.1806357 59.3550084,20.872052 58.148,20.266 C56.9958232,19.6870238 55.9647152,18.8934983 55.11,17.928 C54.2582004,16.9626087 53.5850351,15.8533082 53.122,14.652 C52.6501617,13.4640694 52.4052632,12.1981952 52.4,10.92 Z M87.484,4.508 L81.132,4.508 L81.132,21 L77.3,21 L77.3,4.508 L70.94,4.508 L70.94,1.12 L87.488,1.12 L87.484,4.508 Z M107.728,6.328 C107.507086,6.12881963 107.268047,5.95071248 107.014,5.796 C106.612703,5.54257572 106.191289,5.32250412 105.754,5.138 C105.232435,4.91418235 104.694118,4.73162241 104.144,4.592 C103.567847,4.44299155 102.97511,4.36772327 102.38,4.368 C101.544418,4.30703659 100.711055,4.51292621 100,4.956 C99.4799661,5.3418294 99.1860466,5.96115967 99.216,6.608 C99.2021831,6.97134152 99.3052267,7.32954061 99.51,7.63 C99.7383959,7.92819408 100.03006,8.17204466 100.364,8.344 C100.814191,8.58017205 101.28818,8.76789035 101.778,8.904 C102.347333,9.072 103.005333,9.24933333 103.752,9.436 C104.722667,9.69733333 105.604667,9.97733333 106.398,10.276 C107.126032,10.5381056 107.806837,10.9163304 108.414,11.396 C108.953924,11.8304415 109.389317,12.3806634 109.688,13.006 C110.007331,13.7330808 110.160384,14.5222594 110.136,15.316 C110.163469,16.2614875 109.957387,17.1991622 109.536,18.046 C109.153121,18.7811672 108.595432,19.4109708 107.912,19.88 C107.197435,20.3604856 106.400989,20.7061772 105.562,20.9 C104.649436,21.1177038 103.714165,21.2258004 102.776,21.222 C101.275988,21.220985 99.7846538,20.9944532 98.352,20.55 C96.9521041,20.1304506 95.6286097,19.4889609 94.432,18.65 L96.14,15.316 C96.419641,15.5663632 96.724623,15.7868887 97.05,15.974 C97.5504075,16.2770791 98.0694385,16.5482845 98.604,16.786 C99.2454829,17.0719768 99.9106655,17.3015116 100.592,17.472 C101.323922,17.6591541 102.07653,17.7532301 102.832,17.752 C104.96,17.752 106.024,17.0706667 106.024,15.708 C106.035388,15.3124423 105.906445,14.9256134 105.66,14.616 C105.374193,14.2841334 105.021039,14.0168821 104.624,13.832 C104.101725,13.579565 103.558308,13.3734413 103,13.216 C102.365333,13.0293333 101.656,12.824 100.872,12.6 C100.026438,12.3756221 99.1982651,12.0902065 98.394,11.746 C97.7563703,11.4772572 97.165632,11.1086365 96.644,10.654 C96.1905469,10.2523659 95.8319184,9.75506779 95.594,9.198 C95.346427,8.57004696 95.2274099,7.89879047 95.244,7.224 C95.2267449,6.29734382 95.4181347,5.37867278 95.804,4.536 C96.1625085,3.77069475 96.694609,3.09957698 97.358,2.576 C98.0474894,2.03943317 98.8308305,1.6358938 99.668,1.386 C100.58496,1.10955535 101.538303,0.972689213 102.496,0.98 C103.813049,0.96569409 105.121919,1.18858131 106.36,1.638 C107.445269,2.03061505 108.479365,2.55236349 109.44,3.192 L107.728,6.328 Z M111.844,10.92 C111.846683,9.69034305 112.069533,8.47110198 112.502,7.32 C112.932641,6.14796169 113.583694,5.06921006 114.42,4.142 C115.286174,3.18930585 116.333142,2.41835689 117.5,1.874 C118.798591,1.2770439 120.215001,0.980363401 121.644,1.006 C123.306286,0.961631453 124.948573,1.37687467 126.39,2.206 C127.663695,2.94433566 128.698681,4.03277139 129.372,5.342 L126.404,7.386 C126.168659,6.86436304 125.846786,6.38628742 125.452,5.972 C125.102802,5.6069349 124.697737,5.299761 124.252,5.062 C123.827713,4.83978605 123.375748,4.67500718 122.908,4.572 C122.457591,4.47114252 121.99756,4.41950637 121.536,4.418 C120.655212,4.39667351 119.783392,4.59897433 119.002,5.006 C118.302873,5.38133919 117.691926,5.90159898 117.21,6.532 C116.7268,7.17147129 116.361731,7.89212632 116.132,8.66 C115.893499,9.42613456 115.770811,10.2236056 115.768,11.026 C115.765496,11.8881954 115.907461,12.7447179 116.188,13.56 C116.450538,14.3406764 116.853861,15.0666573 117.378,15.702 C117.888287,16.315551 118.516744,16.8202216 119.226,17.186 C119.957361,17.562379 120.769519,17.7546057 121.592,17.746 C122.063524,17.743213 122.533204,17.6868514 122.992,17.578 C123.476586,17.4662925 123.943124,17.2872173 124.378,17.046 C124.827819,16.7947803 125.238216,16.4787272 125.596,16.108 C125.982218,15.7080793 126.287785,15.2375066 126.496,14.722 L129.66,16.542 C129.345352,17.2872461 128.882673,17.9608516 128.3,18.522 C127.708523,19.0938591 127.039247,19.5793195 126.312,19.964 C125.563962,20.3615178 124.769121,20.6638667 123.946,20.864 C123.139993,21.0651217 122.312714,21.1685315 121.482,21.172 C120.131462,21.1866357 118.797008,20.878052 117.59,20.272 C116.437823,19.6930238 115.406715,18.8994983 114.552,17.934 C113.7002,16.9686087 113.027035,15.8593082 112.564,14.658 C112.093477,13.4677969 111.850603,12.1998316 111.848,10.92 L111.844,10.92 Z M132.26,21 L132.26,1.12 L141.052,1.12 C141.92982,1.11159053 142.797491,1.30813494 143.586,1.694 C144.343742,2.06462127 145.022828,2.57801056 145.586,3.206 C146.146585,3.83228163 146.5921,4.55268929 146.902,5.334 C147.212779,6.09407378 147.374384,6.90685281 147.378,7.728 C147.391589,8.96670428 147.05687,10.1843062 146.412,11.242 C145.807756,12.2624062 144.892288,13.0622141 143.8,13.524 L148.332,21 L143.992,21 L139.932,14.336 L136.124,14.336 L136.124,21 L132.26,21 Z M136.124,10.9480297 L140.968,10.948 C141.315369,10.9498716 141.657479,10.8631396 141.962,10.696 C142.273659,10.5257274 142.546181,10.2920396 142.762,10.01 C142.995854,9.70187095 143.17574,9.35630139 143.294,8.988 C143.428328,8.58156985 143.495871,8.15604899 143.494,7.728 C143.498794,7.28857545 143.422869,6.85200478 143.27,6.44 C143.132113,6.06648355 142.928956,5.72043853 142.67,5.418 C142.429286,5.13739816 142.133952,4.90875287 141.802,4.746 C141.493262,4.59159922 141.153187,4.51017262 140.808,4.508 L136.132,4.508 L136.124,10.9480297 Z M164.684,17.612 L164.684,21 L150.884,21 L150.884,1.12 L164.436,1.12 L164.436,4.508 L154.748,4.508 L154.748,9.3 L163.12,9.3 L163.12,12.436 L154.748,12.436 L154.748,17.616 L164.684,17.612 Z M181.512,17.612 L181.512,21 L167.712,21 L167.712,1.12 L181.26,1.12 L181.26,4.508 L171.572,4.508 L171.572,9.3 L179.944,9.3 L179.944,12.436 L171.572,12.436 L171.572,17.616 L181.512,17.612 Z M188.4,8.26 L188.4,21 L184.536,21 L184.536,1.12 L187.536,1.12 L197.896,14.168 L197.896,1.148 L201.76,1.148 L201.76,21 L198.62,21 L188.4,8.26 Z M220.768,4.508 L214.412,4.508 L214.412,21 L210.576,21 L210.576,4.508 L204.22,4.508 L204.22,1.12 L220.768,1.12 L220.768,4.508 Z M225.468,1.12 L230.368,10.696 L235.352,1.12 L239.524,1.12 L232.3,14.056 L232.3,21 L228.464,21 L228.464,14 L221.264,1.12 L225.468,1.12 Z M241.712,21 L241.712,1.12 L250.14,1.12 C251.01782,1.11159053 251.885491,1.30813494 252.674,1.694 C253.431742,2.06462127 254.110828,2.57801056 254.674,3.206 C255.234585,3.83228163 255.6801,4.55268929 255.99,5.334 C256.300779,6.09407378 256.462384,6.90685281 256.466,7.728 C256.466515,8.56508057 256.314709,9.39526902 256.018,10.178 C255.730071,10.9534361 255.30308,11.6698329 254.758,12.292 C254.210438,12.9127155 253.543967,13.4173295 252.798,13.776 C252.012233,14.1539474 251.149885,14.3455803 250.278,14.336 L245.578,14.336 L245.578,21 L241.712,21 Z M245.576,10.948 L250.056,10.948 C250.752211,10.954468 251.410874,10.632916 251.834,10.08 C252.341185,9.40435969 252.593996,8.57157007 252.548,7.728 C252.555009,7.26559021 252.479145,6.80566265 252.324,6.37 C252.190942,5.9967967 251.991764,5.65060528 251.736,5.348 C251.503338,5.07536862 251.211158,4.85982611 250.882,4.718 C250.568532,4.5807052 250.230214,4.50922958 249.888,4.508 L245.576,4.508 L245.576,10.948 Z M272.96,17.612 L272.96,21 L259.16,21 L259.16,1.12 L272.712,1.12 L272.712,4.508 L263.02,4.508 L263.02,9.3 L271.392,9.3 L271.392,12.436 L263.02,12.436 L263.02,17.616 L272.96,17.612 Z M299.42,1.12 L299.42,21 L295.584,21 L295.584,12.516 L286.568,12.516 L286.568,21 L282.7,21 L282.7,1.12 L286.564,1.12 L286.564,9.156 L295.58,9.156 L295.58,1.12 L299.42,1.12 Z M337.164,21 L337.164,1.148 L341.028,1.148 L341.028,10.584 L349.372,1.12 L353.628,1.12 L346.012,9.94 L354.1,21 L349.76,21 L343.572,12.4 L341.024,15.06 L341.024,21 L337.164,21 Z" id="Text-2" fill="#1CB1B4" fill-rule="nonzero"></path>
                    </g>
                </g>
            </g>
        </g>
    </g>
</svg>